PathFileType	4	(X/Y/Z)	C:\Users\JDoe\SprintCalib.trc
DataRate	CameraRate	NumFrames	NumMarkers	Units	OrigDataRate	OrigDataStartFrame	OrigNumFrames
250.00	250.00	       4	65	mm	250.00	295	       337
Frame#	Time	C7			T8			T12			IJ			PX			R.AA			R.AC			R.Scapula			R.HeadHum			R.Hum			R.Epi.Med			R.Epi.Lat			R.Ulna			R.Wrist.Uln			R.Wrist.Rad			R.Hand			R.Hand2			R.Hand5			L.AA			L.AC			L.Scapula			L.HeadHum			L.Hum			L.Epi.Med			L.Epi.Lat			L.Ulna			L.Wrist.Uln			L.Wrist.Rad			L.Hand			L.Hand2			L.Hand5			Tete.H			Tete.D			Tete.G			Sacral			R.EIAS			LEIAS			R.Crete			L.Crete			R.GT			R.Hip			R.Knee.Med			R.Knee.Lat			R.TTA			R.Fibula			R.Ankle.Med			R.Ankle.Lat			R.Calca			R.Foot.Med			R.Foot.Lat			L.GT			L.Hip			L.Knee.Med			L.Knee.Lat			L.TTA			L.Fibula			L.Ankle.Med			L.Ankle.Lat			L.Calca			L.Foot.Med			L.Foot.Lat			StartG			StartD			StartAvt			StartArr			
		X1	Y1	Z1	X2	Y2	Z2	X3	Y3	Z3	X4	Y4	Z4	X5	Y5	Z5	X6	Y6	Z6	X7	Y7	Z7	X8	Y8	Z8	X9	Y9	Z9	X10	Y10	Z10	X11	Y11	Z11	X12	Y12	Z12	X13	Y13	Z13	X14	Y14	Z14	X15	Y15	Z15	X16	Y16	Z16	X17	Y17	Z17	X18	Y18	Z18	X19	Y19	Z19	X20	Y20	Z20	X21	Y21	Z21	X22	Y22	Z22	X23	Y23	Z23	X24	Y24	Z24	X25	Y25	Z25	X26	Y26	Z26	X27	Y27	Z27	X28	Y28	Z28	X29	Y29	Z29	X30	Y30	Z30	X31	Y31	Z31	X32	Y32	Z32	X33	Y33	Z33	X34	Y34	Z34	X35	Y35	Z35	X36	Y36	Z36	X37	Y37	Z37	X38	Y38	Z38	X39	Y39	Z39	X40	Y40	Z40	X41	Y41	Z41	X42	Y42	Z42	X43	Y43	Z43	X44	Y44	Z44	X45	Y45	Z45	X46	Y46	Z46	X47	Y47	Z47	X48	Y48	Z48	X49	Y49	Z49	X50	Y50	Z50	X51	Y51	Z51	X52	Y52	Z52	X53	Y53	Z53	X54	Y54	Z54	X55	Y55	Z55	X56	Y56	Z56	X57	Y57	Z57	X58	Y58	Z58	X59	Y59	Z59	X60	Y60	Z60	X61	Y61	Z61	X62	Y62	Z62	X63	Y63	Z63	X64	Y64	Z64	X65	Y65	Z65	

295	1.176	-88.97043	92.06377	1480.04907	-42.52480	75.80399	1255.54663	-81.85423	74.79462	1130.82886	-232.29155	89.48052	1400.68787	-278.75708	83.49378	1251.69421	-41.62818	177.58961	1435.61328	-189.82587	206.33691	1418.98560	-108.90148	229.29849	1456.94238	-85.15308	314.55215	1403.71460	-45.07584	373.87061	1274.53467	-97.39905	396.45718	1151.89050	-49.43064	447.43073	1227.63416	-40.41062	562.59058	1137.55042	-42.60821	659.66730	1024.44885	-80.12625	679.82599	1065.09265	-48.75388	711.84680	1001.52338	-59.03129	699.63458	956.30377	-70.92061	758.26208	1013.11725	-41.27908	-8.38387	1432.18909	-193.20064	-24.31174	1431.06897	-122.74989	-59.19324	1468.67773	-103.89893	-154.06421	1425.72327	-65.60616	-195.70547	1286.29150	-142.69518	-256.69247	1205.73975	-91.35139	-299.08881	1281.81689	-97.72292	-386.35992	1164.28748	-137.34581	-531.43188	1090.92773	-172.45139	-559.23425	1137.54211	-159.47058	-592.42029	1077.61572	-188.94629	-639.73322	1086.56226	-172.01952	-584.50092	1032.24597	-130.47197	83.51982	1729.31543	-243.65518	84.12707	1715.48083	-46.91720	94.00854	1648.36157	-47.50394	71.47872	1025.01318	-258.92264	151.59805	1011.66071	-265.07861	3.60296	1021.86932	-152.82753	228.83173	1054.56677	-170.22849	-73.57996	1060.66187	-115.27792	241.83369	926.96716	-248.52597	220.93640	752.44788	-116.72382	142.78717	484.44647	-121.37154	263.72983	519.94360	-170.62747	217.87967	412.50397	-112.00002	282.11966	387.85831	-111.90636	170.67522	96.66153	-74.69006	253.84972	89.89230	-26.38915	191.62697	60.42667	-251.08307	248.91920	58.76541	-229.85678	303.50400	50.39180	-119.41654	-90.52403	938.73816	-117.46263	-124.32845	761.53546	-118.21060	2.17971	500.19312	-120.81677	-121.07452	522.03040	-176.08803	-90.61665	420.44513	-84.26360	-137.75529	349.06976	-135.52309	-44.61129	100.11027	-84.65395	-123.75864	86.40575	-44.65331	-54.49064	66.55671	-271.43893	-110.57872	53.09319	-240.00177	-177.74754	58.63821	-594.30823	266.49527	25.54544	-929.76318	-121.94336	33.77365	-519.35345	71.91231	45.21767	-1119.97388	77.39835	55.47486	-60.63342	165.50671	1149.55127	-37.64631	-10.79700	1264.92297	-11.55138	650.24347	18.88408	-4.21833	-539.75348	34.34364	-282.11081	80.41684	1046.11853	
296	1.180	-89.06501	92.02214	1479.87744	-42.52480	75.80399	1255.54663	-81.62668	74.54903	1130.28699	-232.29155	89.48052	1400.68787	-279.09644	83.58212	1251.80420	-41.63686	177.66452	1435.51746	-189.84839	206.57602	1418.98499	-108.68855	229.31326	1456.83057	-85.08363	314.58875	1403.56677	-45.14411	373.81888	1274.46533	-97.39905	396.45718	1151.89050	-49.43064	447.43073	1227.63416	-40.41512	562.71698	1137.47888	-42.60821	659.66730	1024.44885	-80.01026	679.73846	1065.15979	-48.85287	711.73560	1001.54675	-59.09264	699.62341	956.43848	-70.92061	758.26208	1013.11725	-41.27908	-8.38387	1432.18909	-193.07184	-24.41106	1431.00208	-122.74989	-59.19324	1468.67773	-103.89893	-154.06421	1425.72327	-65.63418	-195.62614	1286.39514	-142.69518	-256.69247	1205.73975	-91.63416	-299.21274	1281.91321	-97.78954	-386.06079	1164.47107	-137.34581	-531.43188	1090.92773	-172.45139	-559.23425	1137.54211	-159.35170	-592.27771	1077.74158	-188.80330	-639.57935	1086.62219	-172.15315	-584.45349	1032.81787	-130.31339	83.54060	1729.39063	-243.76393	84.10826	1715.39294	-46.91720	94.00854	1648.36157	-47.39762	71.61333	1024.92554	-258.92264	151.59805	1011.66071	-264.92654	3.59906	1021.91229	-152.82753	228.83173	1054.56677	-170.41020	-73.49738	1060.74280	-115.27792	241.83369	926.96716	-248.62926	220.85097	752.31403	-116.72382	142.78717	484.44647	-121.37154	263.72983	519.94360	-170.62747	217.87967	412.50397	-112.00002	282.11966	387.85831	-112.05899	170.65979	96.51948	-74.69006	253.84972	89.89230	-26.20053	191.40158	60.21180	-251.23242	249.04312	58.75788	-229.76154	303.87839	50.47498	-119.41654	-90.52403	938.73816	-117.46825	-124.31847	761.29474	-118.21060	2.17971	500.19312	-120.81677	-121.07452	522.03040	-176.08803	-90.61665	420.44513	-84.26360	-137.75529	349.06976	-135.52888	-44.44545	100.24370	-84.66457	-124.20406	86.46397	-44.65331	-54.49064	66.55671	-271.43893	-110.57872	53.09319	-240.00177	-177.74754	58.63821	-594.30823	266.49527	25.54544	-929.72333	-121.95848	33.67964	-519.42169	71.80249	45.10469	-1120.05310	77.46363	55.56725	-60.63342	165.50671	1149.55127	-37.64631	-10.79700	1264.92297	-11.54279	650.15881	18.85048	-4.26367	-539.61664	34.37408	-282.11081	80.41684	1046.11853	
297	1.184	-89.06501	92.02214	1479.87744	-42.41029	75.92023	1255.70972	-81.85423	74.79462	1130.82886	-232.29155	89.48052	1400.68787	-278.75708	83.49378	1251.69421	-41.51962	177.50716	1435.63806	-189.47591	206.57332	1418.81201	-108.76795	229.34390	1456.96143	-85.11910	314.65198	1403.66431	-45.07574	373.90256	1274.57568	-97.39905	396.45718	1151.89050	-49.20759	447.54291	1227.57544	-40.41512	562.71698	1137.47888	-42.58025	659.82471	1024.36829	-80.12625	679.82599	1065.09265	-48.78611	712.02631	1001.81653	-59.03129	699.63458	956.30377	-70.92061	758.26208	1013.11725	-41.27908	-8.38387	1432.18909	-193.20064	-24.31174	1431.06897	-122.85484	-59.16224	1468.72876	-103.80737	-154.08092	1425.82410	-65.63418	-195.62614	1286.39514	-142.69518	-256.69247	1205.73975	-91.47246	-298.96432	1281.96936	-97.86799	-386.26489	1164.34656	-137.36520	-531.36438	1091.01550	-172.30687	-558.92426	1137.85669	-159.11890	-592.36255	1077.85999	-188.62843	-639.89832	1086.81909	-172.15315	-584.45349	1032.81787	-130.50865	83.49289	1729.45837	-243.79367	84.21278	1715.42395	-46.84725	93.90286	1648.31860	-47.50394	71.47872	1025.01318	-258.84595	151.73398	1011.36365	-264.92654	3.59906	1021.91229	-152.82753	228.83173	1054.56677	-170.65053	-73.44280	1060.90894	-115.27792	241.83369	926.96716	-248.62926	220.85097	752.31403	-116.40878	142.81337	484.13635	-121.37154	263.72983	519.94360	-170.62747	217.87967	412.50397	-112.00002	282.11966	387.85831	-112.05899	170.65979	96.51948	-74.69006	253.84972	89.89230	-26.21818	191.51228	60.22702	-251.23242	249.04312	58.75788	-229.74936	303.61572	50.49928	-119.41654	-90.52403	938.73816	-117.59229	-124.35007	761.41870	-118.21060	2.17971	500.19312	-120.81677	-121.07452	522.03040	-176.08803	-90.61665	420.44513	-84.11882	-137.60429	348.93915	-135.52309	-44.61129	100.11027	-84.36601	-123.67535	86.33368	-44.75088	-54.60251	66.52817	-271.55054	-110.47701	53.32830	-240.09848	-177.77136	58.53647	-594.30823	266.49527	25.54544	-929.95142	-121.84692	33.68814	-519.42169	71.80249	45.10469	-1120.06006	77.53254	55.63079	-61.02392	165.51511	1149.33911	-37.77053	-10.74082	1265.24792	-11.59513	650.26331	18.96683	-4.22694	-539.67535	34.33581	-282.11081	80.41684	1046.11853	
298	1.188	-89.12383	92.14458	1479.99841	-42.38679	76.04994	1255.87390	-81.85423	74.79462	1130.82886	-232.40181	89.61967	1400.64795	-278.40671	83.64145	1251.44214	-41.51962	177.50716	1435.63806	-189.58846	206.96448	1418.89856	-108.76795	229.34390	1456.96143	-85.03590	314.62946	1403.62317	-44.96362	373.88525	1274.55835	-97.39905	396.45718	1151.89050	-49.27537	447.47729	1227.66492	-40.41512	562.71698	1137.47888	-42.62270	659.71503	1024.47437	-80.12625	679.82599	1065.09265	-48.86036	712.19348	1001.99243	-58.80786	699.74744	956.47748	-70.79993	758.33459	1013.46246	-41.32602	-8.32711	1432.27136	-193.09764	-24.09226	1430.64355	-122.77118	-59.06075	1468.62646	-103.68948	-154.15402	1425.90442	-65.63418	-195.62614	1286.39514	-142.69518	-256.69247	1205.73975	-91.47246	-298.96432	1281.96936	-97.86098	-385.86301	1164.46008	-137.01128	-531.65356	1091.25061	-172.31213	-559.04919	1137.76245	-159.06364	-592.43488	1078.03857	-188.62843	-639.89832	1086.81909	-172.15315	-584.45349	1032.81787	-130.40735	83.56463	1729.36182	-243.68533	84.10188	1715.47925	-46.78918	94.00745	1648.35974	-47.39537	71.70342	1025.36780	-258.53314	151.58348	1011.28906	-264.92654	3.59906	1021.91229	-152.82753	228.83173	1054.56677	-170.23222	-73.17555	1060.76086	-115.27792	241.83369	926.96716	-248.62926	220.85097	752.31403	-116.40878	142.81337	484.13635	-121.37154	263.72983	519.94360	-170.49538	217.70134	412.29037	-112.00002	282.11966	387.85831	-112.05899	170.65979	96.51948	-74.69006	253.84972	89.89230	-26.10099	191.63046	60.12782	-251.23242	249.04312	58.75788	-229.74936	303.61572	50.49928	-119.41654	-90.52403	938.73816	-117.59229	-124.35007	761.41870	-117.72187	2.11766	499.52823	-120.90948	-120.99120	522.10779	-175.96703	-90.67333	420.55466	-84.05678	-137.82350	349.11249	-135.52309	-44.61129	100.11027	-84.32339	-123.88255	86.62316	-45.00479	-54.63418	66.54613	-271.55054	-110.47701	53.32830	-239.89952	-177.75529	58.49440	-594.30823	266.49527	25.54544	-929.88293	-121.75831	33.64227	-519.44012	71.87989	45.07010	-1120.08716	77.52586	55.67356	-60.63342	165.50671	1149.55127	-37.70846	-10.76888	1265.08545	-11.55532	650.19263	18.81118	-4.29824	-539.57556	34.42526	-282.11081	80.41684	1046.11853	
